<?xml version="1.0" encoding="utf-8"?>
<!-- Generator: Adobe Illustrator 21.0.0, SVG Export Plug-In . SVG Version: 6.00 Build 0)  -->
<svg version="1.1" id="Capa_1" xmlns="http://www.w3.org/2000/svg" xmlns:xlink="http://www.w3.org/1999/xlink" x="0px" y="0px"
	 viewBox="0 0 1200 1200" style="enable-background:new 0 0 1200 1200;" xml:space="preserve">
<style type="text/css">
	.st0{fill:#1469AA;}
	.st1{fill:#15557C;}
	.st2{fill:#2C9874;}
	.st3{fill:#FFFFFF;}
	.st4{fill:#187F5A;}
	.st5{fill:#D4D6D5;}
	.st6{fill:#A4598A;}
</style>
<g>
	<rect x="-15.5" y="-15.5" class="st0" width="1231" height="1231"/>
	<g>
		<path class="st1" d="M255.3,977.3l-11.1,24.4c-0.8,2.1-1.6,4.9-2.4,8.4h-1c-1-4.2-1.9-7-2.5-8.4l-11.1-24.4c0,0-30.4,0-41.4,0
			c-4.4,0-8,1.2-10.7,3.7c-2.7,2.5-4,5.8-4,10.1v52.8h14.8v-28h25.5v-10.7h-25.5v-11.4c0-1.7,0.4-3,1.2-3.8c0.8-0.8,2.1-1.2,4-1.2
			h26.4l16.3,33v22h14.8v-22l21.8-44.6H255.3z"/>
		<path class="st1" d="M220.8,1096.3c-47.2,0-85.7-38.4-85.7-85.7c0-47.2,38.4-85.7,85.7-85.7s85.7,38.4,85.7,85.7
			C306.5,1057.8,268,1096.3,220.8,1096.3z M220.8,932.5c-43,0-78.1,35-78.1,78.1s35,78.1,78.1,78.1s78.1-35,78.1-78.1
			S263.8,932.5,220.8,932.5z"/>
	</g>
	<path class="st1" d="M868.8,496.7c2.1-2.3,4-4.8,5.9-7.4c5.8-8.4,9.5-17.7,11.2-27.8c0.6-3.5,0.9-7.1,0.9-10.7
		c0-77.7,0-155.5,0-233.2c0-6.9-1.1-13.5-3.2-20.1c-5.3-16.4-15.5-29.2-30.2-38.2c-6.9-4.3-14.5-7.1-22.5-8.7
		c-2.7-0.5-5.4-0.8-8.1-1.1c-3.6-0.3-7.1-0.2-10.7-0.2c-199.9,0-399.8,0-599.6,0c-7.1,0-14.1,0.9-21,2.9c-10.2,3-19.1,8.2-26.9,15.3
		c-7.3,6.7-12.9,14.6-16.7,23.7c-2.6,6.2-4.3,12.6-5.1,19.2c-0.2,1.8-0.2,3.6-0.3,5.3c0,0.8,0,1.6-0.6,2.2v232.2
		c0.6,0.6,0.6,1.3,0.6,2.1c0.1,6.3,1.2,12.4,3,18.4c2.8,9,7.3,17.1,13.5,24.3c7.8,9.1,17.4,15.8,28.6,20c4.8,1.8,9.8,3,15,3.7
		c3.6,0.5,7.2,0.6,10.8,0.6c94.3,0,188.7,0,283,0c1.6,0,3,0.3,4.4,1.1c12.6,7.1,25.2,14.1,37.8,21.1c4.2,2.3,8.3,4.6,12.5,7
		c-70.1,58.3-114.8,146.1-114.8,244.5c0,175.4,142.2,317.7,317.7,317.7c175.4,0,317.7-142.2,317.7-317.7
		C1071.5,658,987.4,542.8,868.8,496.7z"/>
	<circle class="st2" cx="733.9" cy="762.9" r="317.7"/>
	<g>
		<path class="st3" d="M853.9,643.4v-41.5c0-3.8-3.1-6.9-6.9-6.9H654c-3.8,0-6.9,3.1-6.9,6.9v314.9c0,3.8,3.1,6.9,6.9,6.9h45.2
			c3.8,0,6.9-3.1,6.9-6.9V805c0-3.8,3.1-6.9,6.9-6.9H799c3.8,0,6.9-3.1,6.9-6.9v-45.2c0-3.8-3.1-6.9-6.9-6.9h-85.9
			c-3.8,0-6.9-3.1-6.9-6.9v-74.8c0-3.8,3.1-6.9,6.9-6.9H847C850.8,650.3,853.9,647.2,853.9,643.4z"/>
	</g>
	<path class="st4" d="M853.9,602.6v40.8c0,3.8-3.1,6.9-6.9,6.9H713.1c-3.8,0-6.9,3.1-6.9,6.9V732c0,3.8,3.1,6.9,6.9,6.9H799
		c3.8,0,6.9,3.1,6.9,6.9v45.2c0,3.8-3.1,6.9-6.9,6.9h-85.9c-3.8,0-6.9,3.1-6.9,6.9v111.7c0,3.8-3.1,6.9-6.9,6.9h-44.8l149.2,149.2
		c127.6-28.6,226.1-133.9,244.7-265L853.9,602.6z"/>
	<g>
		<path class="st1" d="M270.6,543L254,556.3c-2.6,2-2.2,6.7,0.5,7.3l9.4,2.3c-10.5,37.1-6.4,76.1,11.9,110.2
			c18.3,34.1,48.5,59.3,85.2,71l-3.3,9.2c-1,2.6,2.7,5.5,5.8,4.5l20.3-6.5c1.9-0.6,2.6-2.5,1.5-4.2l-11.5-17.9
			c-1.8-2.7-6.4-2.9-7.4-0.3l-3.2,9c-35.2-11.2-64.2-35.3-81.7-68c-17.5-32.6-21.5-70.1-11.3-105.6l9.4,2.3c2.7,0.7,5.2-3.3,3.8-6.3
			l-8.5-19.5C274.2,542.2,272.2,541.7,270.6,543z"/>
		<path class="st1" d="M1021.9,533.8l16.6-13.3c2.6-2,2.2-6.7-0.5-7.3l-9.4-2.3c10.5-37.1,6.4-76.1-11.9-110.2
			c-18.3-34.1-48.5-59.3-85.2-71l3.3-9.2c1-2.6-2.7-5.5-5.8-4.5l-20.3,6.5c-1.9,0.6-2.6,2.5-1.5,4.2l11.5,17.9
			c1.8,2.7,6.4,2.9,7.4,0.3l3.2-9c35.2,11.2,64.2,35.3,81.7,68c17.5,32.6,21.5,70.1,11.3,105.6l-9.4-2.3c-2.7-0.7-5.2,3.3-3.8,6.3
			l8.5,19.5C1018.3,534.6,1020.3,535.1,1021.9,533.8z"/>
	</g>
	<path class="st5" d="M647.1,601.8V614c5.5,3.1,11,6.1,16.4,9.2c5.6,3.1,11.2,6.3,16.8,9.4c0.3,0.2,0.6,0.5,1.1,0.2
		c-0.2-0.6-0.5-1.3-0.7-1.9c-4.9-12-9.8-24-14.7-36h-12C650.2,594.9,647.1,598,647.1,601.8z"/>
	<path class="st4" d="M733.9,445.3c-97.3,0-184.3,43.7-242.6,112.6c17.5,0,35,0,52.5,0c1.7,0,3.1,0.3,4.5,1.1
		c13,7.3,26.1,14.6,39.2,21.9c11.3,6.3,22.5,12.5,33.8,18.8c8.6,4.8,17.1,9.5,25.7,14.3v-12.2c0-3.8,3.1-6.9,6.9-6.9h12
		c-4.7-11.6-9.4-23.1-14.2-34.7c-0.1-0.3-0.2-0.6-0.3-0.9c-0.4-1.2-0.3-1.4,1-1.4c0.6,0,1.2,0,1.9,0c73.7,0,147.4,0,221.1,0
		c2.9,0,5.9,0,8.8-0.4c7.3-0.8,14.3-2.7,21-5.6c12.4-5.5,22.5-13.9,30.2-25.1c1.4-2,2.6-4,3.8-6.1
		C884,473.7,812.2,445.3,733.9,445.3z"/>
	<g>
		<g>
			<path class="st6" d="M121.8,420.3c0-77.4,0-154.8,0-232.2c0.6-0.7,0.6-1.5,0.6-2.2c0.1-1.8,0.1-3.6,0.3-5.3
				c0.7-6.7,2.4-13.1,5.1-19.2c3.9-9.1,9.5-17,16.7-23.7c7.8-7.2,16.8-12.3,26.9-15.3c6.8-2.1,13.8-2.9,21-2.9
				c199.9,0,399.8,0,599.6,0c3.6,0,7.1-0.1,10.7,0.2c2.7,0.2,5.4,0.5,8.1,1.1c8,1.6,15.6,4.4,22.5,8.7c14.7,9.1,24.8,21.8,30.2,38.2
				c2.1,6.5,3.2,13.2,3.2,20.1c0,77.7,0,155.5,0,233.2c0,3.6-0.3,7.1-0.9,10.7c-1.7,10.1-5.4,19.4-11.2,27.8
				c-7.5,10.8-17.2,18.9-29.2,24.2c-6.5,2.9-13.3,4.6-20.3,5.4c-2.8,0.3-5.6,0.4-8.5,0.4c-71.2,0-142.4,0-213.5,0
				c-0.6,0-1.2,0-1.8,0c-1.3,0-1.4,0.2-1,1.4c0.1,0.3,0.2,0.6,0.3,0.8c9.3,22.7,18.6,45.5,27.9,68.2c0.3,0.6,0.5,1.3,0.7,1.9
				c-0.5,0.2-0.8-0.1-1.1-0.2c-5.4-3-10.8-6-16.3-9.1c-13.6-7.6-27.1-15.1-40.7-22.7c-10.9-6.1-21.8-12.1-32.7-18.2
				c-12.6-7-25.2-14-37.8-21.1c-1.4-0.8-2.8-1.1-4.4-1.1c-94.3,0-188.7,0-283,0c-3.6,0-7.2-0.1-10.8-0.6c-5.1-0.7-10.1-1.9-15-3.7
				c-11.3-4.2-20.8-10.8-28.6-20c-6.2-7.2-10.7-15.3-13.5-24.3c-1.9-6-3-12.1-3-18.4C122.4,421.6,122.4,420.9,121.8,420.3z"/>
		</g>
		<g>
			<path class="st3" d="M240.6,354.9c-0.2-0.6-0.3-0.8-0.4-1c-0.8-3.4-1.6-6.7-2.4-10.1c-3.6-15.3-7-30.8-10-46.2
				c-1.6-7.8-3.1-15.6-4.5-23.4c-1.5-8.2-3-16.4-4.4-24.6c-1-5.4-1.9-10.8-2.8-16.3c-1-6-1.9-11.9-2.8-17.9
				c-1-6.2-1.9-12.4-2.9-18.7c-0.5-3.2-1-6.4-2.1-9.4c-1.6-4.4-3.9-8.1-7.8-10.8c-3.6-2.5-7.7-3.4-11.9-3.7c-3.1-0.2-6.2,0-9.3,0.6
				c-5.4,1-10.1,3.2-13.8,7.4c-5.6,6.4-7.4,13.9-6.1,22.2c0.7,4.7,1.5,9.4,2.3,14.1c1.1,6.9,2.2,13.8,3.4,20.7
				c1.1,6.7,2.3,13.5,3.5,20.2c1.4,8.2,2.9,16.4,4.4,24.6c1.4,7.6,2.9,15.1,4.3,22.7c2,10.8,4.2,21.5,6.5,32.2
				c2.2,10.3,4.5,20.6,6.9,30.9c4.5,18.8,9.4,37.5,15.7,55.8c2.1,6.1,4.3,12.1,7.6,17.6c2.1,3.5,4.5,6.7,7.8,9.1
				c3.3,2.4,7,3.4,11.1,2.5c3.7-0.8,7-2.6,10-4.8c3.9-2.9,7.3-6.5,10.4-10.2c6.7-8.1,12.2-17,17.5-26.1c4.8-8.4,9-17.2,13.2-25.8
				c11.7-23.6,23.6-47.2,35.5-70.7c0.2-0.4,0.4-0.9,0.8-1.3c0.2,0.6,0.4,1.2,0.6,1.7c3,10.4,6.4,20.8,10.1,31
				c6.1,16.7,13.2,33,21.9,48.6c8.4,15.2,18.2,29.5,29.9,42.4c3.1,3.5,6.3,6.9,10.1,9.7c5.2,3.9,10.9,6.4,17.6,6.2
				c4.6-0.2,8.6-1.7,12.1-4.7c4.2-3.7,6.4-8.5,7.8-13.8c1.2-4.8,1.1-9.7,0.8-14.7c-0.2-3.5-0.3-7-0.4-10.6c-0.1-4.8,0-9.5,0.1-14.3
				c0.2-5.9,0.5-11.8,0.8-17.7c0.1-1.6,0.2-3.2,0.3-4.8c0.3-4.3,0.7-8.5,1.1-12.7c0.3-3.4,0.6-6.8,1-10.2c0.6-5.5,1.3-10.9,2-16.4
				c0.7-5.5,1.4-11,2.2-16.5c1.1-7.4,2.2-14.7,3.4-22c1.9-11.1,3.9-22.2,6.3-33.2c2.6-11.8,5.5-23.6,9.2-35.1
				c3.2-9.9,6.8-19.6,11.7-28.8c2.3-4.3,3.4-8.9,3.2-13.7c-0.1-4.1-1.1-7.9-3.1-11.4c-3.5-5.9-8.6-9.8-15-12.1
				c-3.6-1.3-7.3-1.7-11.1-1.3c-2.8,0.3-5.6,0.9-8.2,2c-4.8,2.1-8.3,5.7-10.9,10.2c-2.3,3.9-4.3,8-6.1,12.1
				c-6.2,13.6-11,27.8-15,42.2c-2.7,9.7-5,19.5-7.1,29.4c-1.7,8-3.2,16.1-4.5,24.1c-1.1,6.7-2.1,13.4-3.1,20.1
				c-0.9,6.3-1.8,12.7-2.5,19c-0.8,6.5-1.5,13-2.2,19.7c-0.2-0.6-0.4-1-0.6-1.4c-3-7.6-5.7-15.3-8.2-23.1
				c-3.8-11.7-7.2-23.6-10.3-35.6c-3.6-14.4-6.7-28.9-9.5-43.4c-1-5.2-2.6-10.2-5.4-14.7c-3.7-6-9.1-9.3-16.1-9.8
				c-5.6-0.4-10.7,1.1-15.2,4.5c-4.1,3.1-7.2,7-9.7,11.4c-5.5,9.9-10.6,20.1-15.9,30.1c-6.1,11.5-12.1,22.9-18.1,34.4
				c-9.6,18.3-19.2,36.7-28.9,55C243.6,349.2,242.2,351.9,240.6,354.9z"/>
			<path class="st3" d="M830,287.4c-0.1-2,0.1-5.7-0.2-9.4c-0.4-5.9-1.2-11.8-2.5-17.7c-3.4-15.6-9.8-29.7-20-42.1
				c-7.1-8.6-15.8-14.8-26.1-19.1c-5.5-2.3-11.2-3.9-17.1-4.9c-5.8-1-11.7-1.6-17.6-1.2c-3.6,0.2-7.2,0.6-10.8,1.3
				c-6.6,1.2-12.8,3.4-18.8,6.5c-10.4,5.3-19,12.7-26.4,21.7c-11.7,14.1-20.1,29.9-26.2,47.1c-3.7,10.5-6.1,21.2-7.5,32.2
				c-0.7,5.4-1.1,10.9-1.3,16.3c-0.3,7.3-0.1,14.6,0.8,21.9c0.7,6.2,1.7,12.4,3.3,18.4c3,11.5,7.7,22.3,14.5,32.1
				c5.5,8,12.4,14.6,20.7,19.6c11,6.7,23.1,9.9,35.8,10.9c6.1,0.4,12.2,0,18.2-1c11.6-2.1,21.9-6.7,31.3-13.8
				c8.6-6.6,15.7-14.6,21.8-23.5c5.6-8.2,10.3-16.8,14.3-25.9c2.6-5.8,4.8-11.7,6.6-17.7c2.2-7.4,4-14.8,5.2-22.5
				c0.7-4.8,1.3-9.5,1.6-14.3C830.1,297.8,830.1,293.5,830,287.4z M779,294.3c0.1,12.9-2.8,26.5-8.1,39.6
				c-3.5,8.5-8.2,16.3-14.9,22.8c-3.8,3.7-7.9,7.1-12.8,9.4c-3.1,1.5-6.3,2.4-9.7,2.5c-4.6,0.1-8.5-1.5-11.9-4.6
				c-3.6-3.2-6-7.2-8-11.6c-3.1-6.8-5.2-13.9-6.3-21.2c-0.9-5.9-0.9-11.8-0.5-17.7c0.3-4.9,0.9-9.7,1.9-14.4
				c2.3-10.7,6.3-20.7,12-30c2.7-4.4,5.7-8.8,9.1-12.7c3.4-3.9,7.2-7.4,11.8-9.8c3.2-1.7,6.7-2.6,10.3-2.6c5.7,0,10.4,2.4,14.2,6.7
				c3.1,3.6,5.3,7.7,7,12c2.6,6.5,4.4,13.3,5.4,20.2C778.9,286.4,779,289.7,779,294.3z"/>
			<path class="st3" d="M640.2,280c-0.3-5.2-0.9-10.3-1.8-15.4c-2-11.8-5.8-23-11.7-33.4c-5.3-9.5-12-17.8-20.9-24.1
				c-13.3-9.6-28.3-13.8-44.5-14.3c-4.4-0.1-8.8,0.3-13.2,1.1c-6.4,1-12.4,2.9-18.3,5.6c-11.8,5.5-21.4,13.7-29.5,23.6
				c-9.8,12-17.3,25.3-23.1,39.6c-5.5,13.6-8.9,27.8-10.5,42.3c-0.7,6.3-1.1,12.6-1,18.9c0.1,3.2,0.1,6.4,0.3,9.7
				c0.3,4.9,0.8,9.7,1.6,14.5c1.9,11.5,5.4,22.5,10.9,32.8c4.3,8.1,9.6,15.5,16.5,21.7c7.9,7.1,17,12,27.1,15c6,1.8,12.1,3,18.4,3.4
				c6.3,0.4,12.6,0.1,18.8-1.1c7.8-1.4,15.2-4,22.2-7.9c9.5-5.3,17.5-12.5,24.4-20.9c11.1-13.8,19.3-29.2,25.2-45.8
				c5.5-15.5,8.4-31.6,9.1-48C640.6,291.4,640.6,285.7,640.2,280z M585.6,319.9c-1.7,6.7-4,13.2-7.1,19.4
				c-5.1,10.2-12.2,18.8-21.9,25c-3.6,2.3-7.4,3.9-11.6,4.3c-4.3,0.4-8.3-0.7-11.8-3.2c-3.3-2.4-5.7-5.6-7.7-9.2
				c-4-7.3-6.4-15.1-7.9-23.3c-1.2-6.3-1.2-12.7-0.8-19c1-17.9,6.8-34.2,16.8-49.1c3-4.4,6.2-8.8,10.1-12.4
				c4.1-3.8,8.6-6.8,14.1-7.8c6.8-1.3,12.8,0.5,17.6,5.6c2.6,2.7,4.5,5.9,6.1,9.3c3.3,7,5.5,14.4,6.7,22c0.7,4.1,0.8,8.3,0.7,12.2
				C589.3,302.7,587.8,311.3,585.6,319.9z"/>
		</g>
	</g>
	<g>
		<path class="st3" d="M245.3,967.3l-11.1,24.4c-0.8,2.1-1.6,4.9-2.4,8.4h-1c-1-4.2-1.9-7-2.5-8.4l-11.1-24.4c0,0-30.4,0-41.4,0
			c-4.4,0-8,1.2-10.7,3.7c-2.7,2.5-4,5.8-4,10.1v52.8h14.8v-28h25.5v-10.7h-25.5v-11.4c0-1.7,0.4-3,1.2-3.8c0.8-0.8,2.1-1.2,4-1.2
			h26.4l16.3,33v22h14.8v-22l21.8-44.6H245.3z"/>
		<path class="st3" d="M210.8,1086.3c-47.2,0-85.7-38.4-85.7-85.7c0-47.2,38.4-85.7,85.7-85.7s85.7,38.4,85.7,85.7
			C296.5,1047.8,258,1086.3,210.8,1086.3z M210.8,922.5c-43,0-78.1,35-78.1,78.1c0,43,35,78.1,78.1,78.1s78.1-35,78.1-78.1
			C288.9,957.5,253.8,922.5,210.8,922.5z"/>
	</g>
	<g>
		<path class="st3" d="M264,526.3l-16.6,13.3c-2.6,2-2.2,6.7,0.5,7.3l9.4,2.3c-10.5,37.1-6.4,76.1,11.9,110.2
			c18.3,34.1,48.5,59.3,85.2,71l-3.3,9.2c-1,2.6,2.7,5.5,5.8,4.5l20.3-6.5c1.9-0.6,2.6-2.5,1.5-4.2l-11.5-17.9
			c-1.8-2.7-6.4-2.9-7.4-0.3l-3.2,9c-35.2-11.2-64.2-35.3-81.7-68c-17.5-32.6-21.5-70.1-11.3-105.6l9.4,2.3c2.7,0.7,5.2-3.3,3.8-6.3
			l-8.5-19.5C267.5,525.6,265.5,525.1,264,526.3z"/>
		<path class="st3" d="M1015.2,517.1l16.6-13.3c2.6-2,2.2-6.7-0.5-7.3l-9.4-2.3c10.5-37.1,6.4-76.1-11.9-110.2
			c-18.3-34.1-48.5-59.3-85.2-71l3.3-9.2c1-2.6-2.7-5.5-5.8-4.5l-20.3,6.5c-1.9,0.6-2.6,2.5-1.5,4.2l11.5,17.9
			c1.8,2.7,6.4,2.9,7.4,0.3l3.2-9c35.2,11.2,64.2,35.3,81.7,68c17.5,32.6,21.5,70.1,11.3,105.6l-9.4-2.3c-2.7-0.7-5.2,3.3-3.8,6.3
			l8.5,19.5C1011.7,517.9,1013.6,518.4,1015.2,517.1z"/>
	</g>
</g>
</svg>
